<?xml version="1.0" encoding="UTF-8" standalone="no"?>
<!DOCTYPE svg PUBLIC "-//W3C//DTD SVG 1.1//EN" "http://www.w3.org/Graphics/SVG/1.1/DTD/svg11.dtd">
<svg width="100%" height="100%" viewBox="0 0 500 500" version="1.1" xmlns="http://www.w3.org/2000/svg" xmlnsXlink="http://www.w3.org/1999/xlink" xmlSpace="preserve" xmlnsSerif="http://www.serif.com/" style="fill-rule:evenodd;clip-rule:evenodd;stroke-linejoin:round;stroke-miterlimit:2;">
    <g id="Layer1">
        <g transform="matrix(1.5633,0,0,1.5633,-132.423,-133.676)">
            <path d="M328.289,177.332C328.289,177.332 380.178,216.071 382.411,267.876C382.411,267.876 374.555,318.223 341.051,346.356C311.208,371.414 291.507,386.366 228.5,385.304C228.5,385.304 257.661,382.75 285.929,287.626C285.929,287.626 300.016,235.327 297.562,183.332C297.562,183.332 319.587,187.941 328.289,177.332Z" style="fill:rgb(244,244,244);"/>
        </g>
        <g transform="matrix(1.5633,0,0,1.5633,-132.423,-133.676)">
            <path d="M328.401,177.287C328.401,177.287 336.723,167.781 324.414,151.338C324.414,151.338 335.327,148.391 347.154,151.338C347.154,151.338 363.827,166.973 374.078,193.863C374.078,193.863 388.491,228.111 382.329,267.894C382.329,267.894 384.152,245.074 360.942,211.533C360.942,211.533 347.558,192.878 328.401,177.287Z" style="fill:rgb(15,150,226);"/>
        </g>
        <g transform="matrix(1.5633,0,0,1.5633,-132.423,-133.676)">
            <path d="M324.617,151.623C324.617,151.623 309.923,134.058 290.658,133.525C290.658,133.525 289.289,120.064 278.229,110.781C278.229,110.781 318.71,121.029 347.575,151.623C347.575,151.623 338.148,147.764 324.617,151.623Z" style="fill:rgb(242,236,216);"/>
        </g>
        <g transform="matrix(1.5633,0,0,1.5633,-132.423,-133.676)">
            <path d="M297.955,182.817C297.955,182.817 283.511,179.334 271.422,167.304C271.422,167.304 226.317,187.471 196.526,209.093C196.526,209.093 170.196,225.987 150.398,245.689C150.398,245.689 125.894,267.543 112.348,293.182C112.348,293.182 127.85,335.03 156.692,355.964C156.692,355.964 183.496,380.183 228.768,385.357C228.768,385.357 250.239,383.128 273.943,322.579C273.943,322.579 286.809,289.932 291.391,261.976C291.391,261.976 300.707,217.468 297.955,182.817Z" style="fill:rgb(223,71,124);"/>
        </g>
        <g transform="matrix(1.5633,0,0,1.5633,-132.423,-133.676)">
            <path d="M290.357,133.185C290.357,133.185 274.106,132.601 267.941,142.138C267.941,142.138 251.033,132.187 220.991,128.858C220.991,128.858 195.644,125.168 161.521,133.185C161.521,133.185 193.292,112.079 226.24,107.58C226.24,107.58 256.385,103.776 278.455,110.847C278.455,110.847 289.946,121.516 290.357,133.185Z" style="fill:rgb(255,191,52);"/>
        </g>
        <g transform="matrix(1.5633,0,0,1.5633,-132.423,-133.676)">
            <path d="M268.018,142.098C268.018,142.098 261.353,152.275 271.353,167.461C271.353,167.461 221.784,190.384 205.371,203.005C205.371,203.005 170.169,226.279 156.263,239.942C156.263,239.942 125.647,267.1 112.18,292.802C112.18,292.802 95.891,248.515 108.435,208.02C108.435,208.02 116.163,182.655 132.321,161.714C132.321,161.714 142.588,148.231 161.134,133.172C161.134,133.172 190.832,126.269 218.756,128.884C218.756,128.884 243.736,130.058 268.018,142.098Z" style="fill:rgb(244,244,244);"/>
        </g>
        <g transform="matrix(1.5014,0.855861,-0.857289,1.5039,26.302,-408.502)">
            <path d="M304.969,154.134C322.479,154.134 336.604,163.105 336.604,174.332C336.604,185.558 319.128,195.367 300.95,195.395C283.44,195.423 273.421,186.049 273.421,174.822C273.421,163.595 287.459,154.134 304.969,154.134Z" style="fill:rgb(230,230,230);"/>
        </g>
        <g transform="matrix(2.30867,0,0,1.95461,-265.236,-195.644)">
            <path d="M177.814,179.947C168.242,176.291 156.219,194.217 153.856,217.75C152.122,235.022 165.083,264.219 175.026,261.034C182.561,258.619 183.122,249.136 180.187,241.406C177.181,233.489 175.888,225.757 175.976,217.94C176.073,209.327 179.205,208.342 180.971,200.644C182.263,195.012 185.353,182.826 177.814,179.947Z" style="fill:white;fill-opacity:0.55;"/>
        </g>
    </g>
</svg>
