<?xml version="1.0" encoding="UTF-8" standalone="no"?>
<!DOCTYPE svg PUBLIC "-//W3C//DTD SVG 1.1//EN" "http://www.w3.org/Graphics/SVG/1.1/DTD/svg11.dtd">
<svg width="100%" height="100%" viewBox="0 0 500 500" version="1.1" xmlns="http://www.w3.org/2000/svg" xmlns:xlink="http://www.w3.org/1999/xlink" xml:space="preserve" xmlns:serif="http://www.serif.com/" style="fill-rule:evenodd;clip-rule:evenodd;stroke-linejoin:round;stroke-miterlimit:2;">
    <g transform="matrix(6.35465,0,0,6.44203,-283.528,-1242.23)">
        <path d="M80.977,264.896C75.697,264.801 70.823,262.395 66.873,258.385C60.937,252.359 57.09,242.714 57.09,231.853C57.09,220.909 60.996,211.2 67.01,205.184C71.016,201.176 75.957,198.807 81.3,198.807C82.948,198.807 84.557,199.032 86.112,199.461C83.878,202.882 80.699,208.477 79.023,214.18C77.901,217.998 77.453,221.864 78.411,225.159C78.976,227.103 84.776,240.598 85.137,248.514C85.368,253.596 83.34,259.595 80.977,264.896Z" style="fill:rgb(122,50,30);"/>
        <clipPath id="_clip1">
            <path d="M80.977,264.896C75.697,264.801 70.823,262.395 66.873,258.385C60.937,252.359 57.09,242.714 57.09,231.853C57.09,220.909 60.996,211.2 67.01,205.184C71.016,201.176 75.957,198.807 81.3,198.807C82.948,198.807 84.557,199.032 86.112,199.461C83.878,202.882 80.699,208.477 79.023,214.18C77.901,217.998 77.453,221.864 78.411,225.159C78.976,227.103 84.776,240.598 85.137,248.514C85.368,253.596 83.34,259.595 80.977,264.896Z"/>
        </clipPath>
        <g clip-path="url(#_clip1)">
            <g transform="matrix(1.02788,0,0,1,0.30067,0.0874034)">
                <path d="M82.258,196.728C82.258,196.728 69.058,197.94 58.811,208.342C53.686,213.543 51.038,225.656 50.981,231.394C50.923,237.133 51.825,250.589 61.115,259.833C64.905,263.605 77.684,265.942 77.684,265.942C72.638,265.495 58.906,251.428 58.862,231.043C58.82,211.618 74.119,197.399 82.258,196.728Z" style="fill:rgb(183,107,85);"/>
            </g>
        </g>
    </g>
    <g transform="matrix(6.30018,0,0,6.40859,-252.819,-1233.3)">
        <path d="M86.16,199.443C97.214,202.518 105.541,215.869 105.541,231.853C105.541,250.108 94.679,264.929 81.3,264.929C81.199,264.929 81.098,264.928 80.996,264.927C83.366,259.617 85.399,253.605 85.167,248.513C84.807,240.594 79.006,227.095 78.44,225.15C76.049,216.927 82.437,205.136 86.16,199.443Z" style="fill:rgb(122,50,30);"/>
        <clipPath id="_clip2">
            <path d="M86.16,199.443C97.214,202.518 105.541,215.869 105.541,231.853C105.541,250.108 94.679,264.929 81.3,264.929C81.199,264.929 81.098,264.928 80.996,264.927C83.366,259.617 85.399,253.605 85.167,248.513C84.807,240.594 79.006,227.095 78.44,225.15C76.049,216.927 82.437,205.136 86.16,199.443Z"/>
        </clipPath>
        <g clip-path="url(#_clip2)">
            <g transform="matrix(1.03677,0,0,1.00522,-4.57107,-1.30499)">
                <path d="M86.653,196.486C86.653,196.486 86.876,197.29 93.701,205.818C98.81,212.2 100.974,221.657 99.835,233.487C98.998,242.193 95.805,256.379 81.633,267.272C74.163,273.013 110.56,260.231 111.386,240.288C112.61,210.7 86.653,196.486 86.653,196.486Z" style="fill:rgb(104,23,0);"/>
            </g>
        </g>
    </g>
</svg>
