<?xml version="1.0" encoding="UTF-8" standalone="no"?>
<!DOCTYPE svg PUBLIC "-//W3C//DTD SVG 1.1//EN" "http://www.w3.org/Graphics/SVG/1.1/DTD/svg11.dtd">
<svg width="100%" height="100%" viewBox="0 0 500 500" version="1.1" xmlns="http://www.w3.org/2000/svg" xmlns:xlink="http://www.w3.org/1999/xlink" xml:space="preserve" xmlns:serif="http://www.serif.com/" style="fill-rule:evenodd;clip-rule:evenodd;stroke-linejoin:round;stroke-miterlimit:2;">
    <g transform="matrix(1.29932,0,0,1.29932,-142.914,71.5304)">
        <path d="M348.114,158.239C348.114,158.239 356.445,148.184 387.054,149.674C406.887,150.639 410.689,158.861 413.371,167.283C418.519,183.444 412.224,234.633 395.238,251.357C382.339,264.058 347.817,262.209 347.817,262.209L346.763,244.723C346.763,244.723 378.42,248.195 384.737,237.83C391.689,226.426 404.028,169.53 386.663,167.651C378.494,166.767 363.919,164.803 345.971,178.574L348.114,158.239Z" style="fill:rgb(216,189,189);"/>
        <clipPath id="_clip1">
            <path d="M348.114,158.239C348.114,158.239 356.445,148.184 387.054,149.674C406.887,150.639 410.689,158.861 413.371,167.283C418.519,183.444 412.224,234.633 395.238,251.357C382.339,264.058 347.817,262.209 347.817,262.209L346.763,244.723C346.763,244.723 378.42,248.195 384.737,237.83C391.689,226.426 404.028,169.53 386.663,167.651C378.494,166.767 363.919,164.803 345.971,178.574L348.114,158.239Z"/>
        </clipPath>
        <g clip-path="url(#_clip1)">
            <g transform="matrix(1,0,0,1,37.98,-10.2148)">
                <path d="M332.786,158.576L330.246,179.036L341.552,178.674L344.243,158.578L332.786,158.576Z" style="fill:rgb(194,166,166);"/>
            </g>
            <g transform="matrix(1.0609,0.0162263,-0.0144175,0.942639,3.62515,89.0789)">
                <path d="M330.896,156.688L328.018,179.428L343.175,179.858L345.515,155.996L330.896,156.688Z" style="fill:rgb(194,166,166);"/>
            </g>
        </g>
    </g>
    <g transform="matrix(8.11425e-17,-1.29932,1.29932,8.11425e-17,-125.793,595.543)">
        <path d="M288.988,361.811C279.665,361.811 268.819,361.078 257.068,359.899C251.251,359.315 245.213,358.622 239.028,357.853C214.167,354.766 186.931,350.467 162.178,347.203C156.335,346.433 150.63,345.72 145.127,345.094C133.62,343.786 122.998,342.86 113.845,342.585C97.118,342.083 96.117,276.474 96.117,276.474C96.117,276.474 97.767,206.74 113.845,206.773C159.549,206.868 243.285,187.925 288.988,187.925C302.393,196.297 299.411,241.332 299.608,269.237C299.883,308.191 299.454,340.791 288.988,361.811ZM281.513,199.384C276.98,214.379 273.924,242.58 273.924,274.868C273.924,307.156 276.98,335.357 281.513,350.352C285.753,344.282 288.988,312.774 288.988,274.868C288.988,236.961 285.753,205.454 281.513,199.384Z" style="fill:rgb(235,235,235);"/>
        <clipPath id="_clip2">
            <path d="M288.988,361.811C279.665,361.811 268.819,361.078 257.068,359.899C251.251,359.315 245.213,358.622 239.028,357.853C214.167,354.766 186.931,350.467 162.178,347.203C156.335,346.433 150.63,345.72 145.127,345.094C133.62,343.786 122.998,342.86 113.845,342.585C97.118,342.083 96.117,276.474 96.117,276.474C96.117,276.474 97.767,206.74 113.845,206.773C159.549,206.868 243.285,187.925 288.988,187.925C302.393,196.297 299.411,241.332 299.608,269.237C299.883,308.191 299.454,340.791 288.988,361.811ZM281.513,199.384C276.98,214.379 273.924,242.58 273.924,274.868C273.924,307.156 276.98,335.357 281.513,350.352C285.753,344.282 288.988,312.774 288.988,274.868C288.988,236.961 285.753,205.454 281.513,199.384Z"/>
        </clipPath>
        <g clip-path="url(#_clip2)">
            <g transform="matrix(6.245e-17,1,-1,6.245e-17,413.46,26.4736)">
                <path d="M227.38,145.913C227.38,145.913 321.505,152.689 345.872,126.852C367.818,103.582 319.67,311.749 319.67,311.749L218.772,327.893L168.499,301.562C168.499,301.562 241.558,307.851 272.979,286.61C293.265,272.897 297.36,217.061 295.705,192.249C295.227,185.081 288.418,172.566 280.763,167.166C262.71,154.43 227.38,145.913 227.38,145.913Z" style="fill:url(#_Linear3);"/>
            </g>
            <g transform="matrix(0.0192365,1.02584,-0.992599,0.0186132,408.562,67.627)">
                <path d="M119.095,133.323C118.511,132.95 130.425,145.953 133.377,152.432C137.875,162.307 140.953,226.886 141.522,227.109C145.535,228.686 148.039,228.31 150.777,228.399C151.376,228.418 148.24,212.966 148.265,199.046C148.285,187.702 148.815,168.872 153.77,160.401C161.035,147.981 170.263,145.245 168.736,145.17C162.24,144.851 130.779,140.79 119.095,133.323Z" style="fill:rgb(246,246,246);"/>
            </g>
        </g>
    </g>
    <g transform="matrix(1.37386,0,0,1.29932,-102.913,62.0003)">
        <path d="M161.452,122.198C161.452,113.884 198.296,107.134 243.677,107.134C289.059,107.134 325.903,113.884 325.903,122.198C325.903,124.918 321.96,127.471 315.066,129.674C309.325,125.434 279.527,122.198 243.677,122.198C207.827,122.198 178.029,125.434 172.288,129.674C165.394,127.471 161.452,124.918 161.452,122.198Z" style="fill:url(#_Linear4);"/>
    </g>
    <g transform="matrix(1.29932,0,0,1.29932,-90.8779,59.0472)">
        <path d="M172.91,131.947C178.98,127.707 210.488,124.471 248.394,124.471C286.301,124.471 317.808,127.707 323.879,131.947C308.884,136.479 280.683,139.536 248.394,139.536C216.106,139.536 187.905,136.479 172.91,131.947Z" style="fill:rgb(104,23,0);"/>
        <clipPath id="_clip5">
            <path d="M172.91,131.947C178.98,127.707 210.488,124.471 248.394,124.471C286.301,124.471 317.808,127.707 323.879,131.947C308.884,136.479 280.683,139.536 248.394,139.536C216.106,139.536 187.905,136.479 172.91,131.947Z"/>
        </clipPath>
        <g clip-path="url(#_clip5)">
            <path d="M261.216,114.222C261.216,114.222 322.085,126.18 325.845,129.003C329.605,131.826 316.073,140.502 297.634,145.161C279.195,149.819 320.437,137.269 310.142,131.635C304.87,128.751 264.682,123.588 260.132,124.609C258.269,125.027 261.216,114.222 261.216,114.222Z" style="fill:rgb(169,99,79);"/>
        </g>
    </g>
    <g transform="matrix(1.74221,0.033085,-0.0244604,1.28805,-94.8271,66.8)">
        <path d="M229.702,-1.75C229.702,-1.75 208.021,22.478 208.874,38.056C209.726,53.634 218,56.221 219.765,66.791C222.61,83.839 213.779,99.647 213.779,99.647C213.779,99.647 230.156,80.433 229.895,63.405C229.661,48.169 221.689,47.822 220.564,36.374C219.36,24.114 229.702,-1.75 229.702,-1.75Z" style="fill:rgb(236,226,226);"/>
        <clipPath id="_clip6">
            <path d="M229.702,-1.75C229.702,-1.75 208.021,22.478 208.874,38.056C209.726,53.634 218,56.221 219.765,66.791C222.61,83.839 213.779,99.647 213.779,99.647C213.779,99.647 230.156,80.433 229.895,63.405C229.661,48.169 221.689,47.822 220.564,36.374C219.36,24.114 229.702,-1.75 229.702,-1.75Z"/>
        </clipPath>
        <g clip-path="url(#_clip6)">
            <g transform="matrix(0.888993,-1.29056e-17,1.14798e-17,0.976775,29.3948,-4.64353)">
                <path d="M229.702,-1.75C229.702,-1.75 208.021,22.478 208.874,38.056C209.726,53.634 218,56.221 219.765,66.791C222.61,83.839 213.779,99.647 213.779,99.647C213.779,99.647 230.156,80.433 229.895,63.405C229.661,48.169 221.689,47.822 220.564,36.374C219.36,24.114 229.702,-1.75 229.702,-1.75Z" style="fill:rgb(224,199,199);"/>
            </g>
        </g>
    </g>
    <g transform="matrix(1.97682,0.00319711,-0.00263627,1.63004,-203.178,22.8092)">
        <path d="M229.702,-1.75C229.702,-1.75 208.021,22.478 208.874,38.056C209.726,53.634 218,56.221 219.765,66.791C222.61,83.839 213.779,99.647 213.779,99.647C213.779,99.647 230.156,80.433 229.895,63.405C229.661,48.169 221.689,47.822 220.564,36.374C219.36,24.114 229.702,-1.75 229.702,-1.75Z" style="fill:rgb(236,226,226);"/>
        <clipPath id="_clip7">
            <path d="M229.702,-1.75C229.702,-1.75 208.021,22.478 208.874,38.056C209.726,53.634 218,56.221 219.765,66.791C222.61,83.839 213.779,99.647 213.779,99.647C213.779,99.647 230.156,80.433 229.895,63.405C229.661,48.169 221.689,47.822 220.564,36.374C219.36,24.114 229.702,-1.75 229.702,-1.75Z"/>
        </clipPath>
        <g clip-path="url(#_clip7)">
            <g transform="matrix(0.888993,-1.29056e-17,1.14798e-17,0.976775,29.3948,-4.64353)">
                <path d="M229.702,-1.75C229.702,-1.75 208.021,22.478 208.874,38.056C209.726,53.634 218,56.221 219.765,66.791C222.61,83.839 213.779,99.647 213.779,99.647C213.779,99.647 230.156,80.433 229.895,63.405C229.661,48.169 221.689,47.822 220.564,36.374C219.36,24.114 229.702,-1.75 229.702,-1.75Z" style="fill:rgb(224,199,199);"/>
            </g>
        </g>
    </g>
    <g transform="matrix(1.38942,0.00224711,-0.00209972,1.29828,-124.333,82.1744)">
        <path d="M229.702,-1.75C229.702,-1.75 208.021,22.478 208.874,38.056C209.726,53.634 218,56.221 219.765,66.791C222.61,83.839 213.779,99.647 213.779,99.647C213.779,99.647 230.156,80.433 229.895,63.405C229.661,48.169 221.689,47.822 220.564,36.374C219.36,24.114 229.702,-1.75 229.702,-1.75Z" style="fill:rgb(236,226,226);"/>
        <clipPath id="_clip8">
            <path d="M229.702,-1.75C229.702,-1.75 208.021,22.478 208.874,38.056C209.726,53.634 218,56.221 219.765,66.791C222.61,83.839 213.779,99.647 213.779,99.647C213.779,99.647 230.156,80.433 229.895,63.405C229.661,48.169 221.689,47.822 220.564,36.374C219.36,24.114 229.702,-1.75 229.702,-1.75Z"/>
        </clipPath>
        <g clip-path="url(#_clip8)">
            <g transform="matrix(0.888993,-1.29056e-17,1.14798e-17,0.976775,29.3948,-4.64353)">
                <path d="M229.702,-1.75C229.702,-1.75 208.021,22.478 208.874,38.056C209.726,53.634 218,56.221 219.765,66.791C222.61,83.839 213.779,99.647 213.779,99.647C213.779,99.647 230.156,80.433 229.895,63.405C229.661,48.169 221.689,47.822 220.564,36.374C219.36,24.114 229.702,-1.75 229.702,-1.75Z" style="fill:rgb(224,199,199);"/>
            </g>
        </g>
    </g>
    <defs>
        <linearGradient id="_Linear3" x1="0" y1="0" x2="1" y2="0" gradientUnits="userSpaceOnUse" gradientTransform="matrix(116.061,135.848,-135.848,116.061,210.798,182.033)"><stop offset="0" style="stop-color:rgb(233,233,233);stop-opacity:1"/><stop offset="1" style="stop-color:rgb(204,204,204);stop-opacity:1"/></linearGradient>
        <linearGradient id="_Linear4" x1="0" y1="0" x2="1" y2="0" gradientUnits="userSpaceOnUse" gradientTransform="matrix(-189.568,5.2909,-5.00384,-200.444,340.686,122.356)"><stop offset="0" style="stop-color:rgb(164,123,123);stop-opacity:1"/><stop offset="0.54" style="stop-color:rgb(156,107,107);stop-opacity:1"/><stop offset="1" style="stop-color:rgb(128,51,51);stop-opacity:1"/></linearGradient>
    </defs>
</svg>
