<?xml version="1.0" encoding="UTF-8" standalone="no"?>
<!DOCTYPE svg PUBLIC "-//W3C//DTD SVG 1.1//EN" "http://www.w3.org/Graphics/SVG/1.1/DTD/svg11.dtd">
<svg width="100%" height="100%" viewBox="0 0 500 500" version="1.1" xmlns="http://www.w3.org/2000/svg" xmlns:xlink="http://www.w3.org/1999/xlink" xml:space="preserve" xmlns:serif="http://www.serif.com/" style="fill-rule:evenodd;clip-rule:evenodd;stroke-linejoin:round;stroke-miterlimit:2;">
    <g transform="matrix(1,0,0,1,-12.4391,-21.8506)">
        <path d="M264.68,450.107C264.68,450.107 250.644,422.572 223.289,397.159C166.237,344.157 114.843,333.906 76.682,275.023C48.215,231.097 45.688,157.211 100.394,117.573C191.868,51.294 264.68,142.58 264.68,142.58C264.68,142.58 337.002,51.743 428.477,118.022C483.182,157.66 480.655,231.546 452.188,275.472C414.027,334.355 362.633,344.606 305.582,397.607C278.226,423.021 264.68,450.107 264.68,450.107Z" style="fill:rgb(242,40,55);"/>
        <clipPath id="_clip1">
            <path d="M264.68,450.107C264.68,450.107 250.644,422.572 223.289,397.159C166.237,344.157 114.843,333.906 76.682,275.023C48.215,231.097 45.688,157.211 100.394,117.573C191.868,51.294 264.68,142.58 264.68,142.58C264.68,142.58 337.002,51.743 428.477,118.022C483.182,157.66 480.655,231.546 452.188,275.472C414.027,334.355 362.633,344.606 305.582,397.607C278.226,423.021 264.68,450.107 264.68,450.107Z"/>
        </clipPath>
        <g clip-path="url(#_clip1)">
            <g transform="matrix(0.999999,0.00122871,-0.00122871,0.999999,11.6372,20.5842)">
                <path d="M242.59,108.501C242.59,108.501 198.498,70.179 146.836,80.364C119.958,85.662 87.608,102.67 70.678,133.413C48.953,172.865 61.56,216.922 67.441,231.071C86.342,276.541 126.753,303.666 167.012,336.031C210.567,371.046 216.508,391.18 216.508,391.18L157.801,374.351L46.608,276.218L22.222,170.56L63.552,86.136L224.573,57.603L242.59,108.501Z" style="fill:rgb(255,95,95);"/>
            </g>
            <g transform="matrix(1,0,0,1,12.4391,21.8506)">
                <path d="M245.496,88.608C239.98,87.994 247.954,111.77 255.278,111.188C260.74,110.754 278.981,98.195 285.119,95.299C331.938,73.207 368.105,93.172 380.419,102.425C410.199,124.802 427.737,157.845 425.009,189.656C421.337,232.485 401.171,267.628 378.716,292.835C356.714,317.535 283.862,384.744 283.862,384.744L420.052,298.914L465.972,229.082L473.276,174.669L439.26,95.455L342.611,52.348L245.496,88.608Z" style="fill:rgb(203,38,39);"/>
            </g>
        </g>
    </g>
</svg>
