<?xml version="1.0" encoding="UTF-8" standalone="no"?>
<!DOCTYPE svg PUBLIC "-//W3C//DTD SVG 1.1//EN" "http://www.w3.org/Graphics/SVG/1.1/DTD/svg11.dtd">
<svg width="100%" height="100%" viewBox="0 0 500 500" version="1.1" xmlns="http://www.w3.org/2000/svg" xmlnsXlink="http://www.w3.org/1999/xlink" xmlSpace="preserve" xmlnsSerif="http://www.serif.com/" style="fill-rule:evenodd;clip-rule:evenodd;stroke-linejoin:round;stroke-miterlimit:2;">
    <g transform="matrix(1,0,0,1,-11.3613,-20.7439)">
        <path d="M264.68,450.107C264.68,450.107 250.644,422.572 223.289,397.159C166.237,344.157 114.843,333.906 76.682,275.023C48.215,231.097 45.688,157.211 100.394,117.573C191.868,51.294 264.68,142.58 264.68,142.58C264.68,142.58 337.002,51.743 428.477,118.022C483.182,157.66 480.655,231.546 452.188,275.472C414.027,334.355 362.633,344.606 305.582,397.607C278.226,423.021 264.68,450.107 264.68,450.107Z" style="fill:rgb(242,40,55);"/>
        <path d="M264.236,450.336C263.336,448.685 249.136,422.465 222.308,398.214C164.78,346.213 112.808,336.543 73.307,277.208C43.379,232.255 39.204,154.842 97.312,112.151C171.796,57.429 237.406,102.898 264.582,130.56C284.205,109.944 333.17,70.516 394.945,90.546C413.316,96.503 432.361,108.095 445.313,120.362C492.041,164.618 487.581,235.935 458.294,279.426C437.065,310.951 412.578,328.26 387.765,343.962C362.053,360.232 334.802,375.294 306.727,400.107C288.671,416.064 273.498,435.676 265.126,450.333C265.04,450.484 264.901,450.59 264.724,450.605C264.421,450.632 264.436,450.56 264.236,450.336ZM264.664,448.984C266.603,445.016 275.062,428.511 290.109,410.525C297.967,401.132 314.19,383.483 346.054,360.103C373.983,339.611 398.844,325.579 421.307,302.93C435.178,288.944 445.913,273.324 451.663,261.289C471.753,219.247 469.389,159.06 423.798,125.719C405.143,112.076 366.062,89.041 315.994,113.056C292.064,124.534 275.564,142.12 270.99,147.585C270.054,148.703 269.195,149.251 269.016,149.366C268.508,149.691 265.423,151.662 261.504,149.98C261.313,149.898 260.292,149.46 259.309,148.58C258.449,147.81 256.476,145.01 251.156,139.628C239.511,127.847 213.56,105.628 179.495,101.224C166.513,99.545 137.995,98.211 103.419,123.021C51.952,159.951 52.963,230.214 80.487,273.515C117.252,331.357 168.317,342.618 224.27,396.103C248.567,419.328 261.982,443.851 264.664,448.984Z" style="fill:rgb(255,144,144);"/>
    </g>
</svg>
