<?xml version="1.0" encoding="UTF-8" standalone="no"?>
<!DOCTYPE svg PUBLIC "-//W3C//DTD SVG 1.1//EN" "http://www.w3.org/Graphics/SVG/1.1/DTD/svg11.dtd">
<svg width="100%" height="100%" viewBox="0 0 500 500" version="1.1" xmlns="http://www.w3.org/2000/svg" xmlns:xlink="http://www.w3.org/1999/xlink" xml:space="preserve" xmlns:serif="http://www.serif.com/" style="fill-rule:evenodd;clip-rule:evenodd;stroke-linejoin:round;stroke-miterlimit:2;">
    <g transform="matrix(1.07514,0,0,1.07514,-29.4333,-0.487315)">
        <ellipse cx="259.905" cy="366.411" rx="36.578" ry="75.029" style="fill:rgb(255,207,114);"/>
        <clipPath id="_clip1">
            <ellipse cx="259.905" cy="366.411" rx="36.578" ry="75.029"/>
        </clipPath>
        <g clip-path="url(#_clip1)">
            <g transform="matrix(1,0,0,1,9.9053,-1.43851)">
                <path d="M216.953,328.37C213.357,331.137 209.83,356.892 209.83,356.892C209.83,356.892 212.751,341.199 222.451,338.189C233.594,334.731 268.26,333.623 275.379,338.401C284.58,344.575 284.935,407.299 284.935,407.299C284.935,407.299 292.397,333.8 288.768,329.579C282.711,322.533 220.085,325.96 216.953,328.37Z" style="fill:rgb(225,173,70);"/>
            </g>
        </g>
    </g>
    <g transform="matrix(1.30565,0,0,1.38324,-89.4997,-29.1754)">
        <path d="M337.787,268.122C308.645,278.075 209.205,282.576 182.261,268.122C171.604,262.406 170.231,218.735 170.231,192.015C170.231,108.006 210.466,39.802 260.024,39.802C309.582,39.802 349.817,108.006 349.817,192.015C349.817,218.735 349.4,264.156 337.787,268.122Z" style="fill:url(#_Linear2);"/>
        <clipPath id="_clip3">
            <path d="M337.787,268.122C308.645,278.075 209.205,282.576 182.261,268.122C171.604,262.406 170.231,218.735 170.231,192.015C170.231,108.006 210.466,39.802 260.024,39.802C309.582,39.802 349.817,108.006 349.817,192.015C349.817,218.735 349.4,264.156 337.787,268.122Z"/>
        </clipPath>
        <g clip-path="url(#_clip3)">
            <g transform="matrix(0.82345,0,0,0.777257,53.2681,71.9845)">
                <path d="M130.901,169.271C130.901,169.271 139.76,251.289 151.083,260.743C162.407,270.197 350.896,280.759 362.77,251.194C374.643,221.63 364.813,132.92 364.813,132.92C364.813,132.92 354.638,223.004 337.829,236.794C323.273,248.735 282.711,255.234 249.194,254.979C217.618,254.739 178.524,251.929 161.762,241.257C137.799,226.001 130.901,169.271 130.901,169.271Z" style="fill:url(#_Linear4);"/>
            </g>
        </g>
    </g>
    <g transform="matrix(0.697532,0,0,0.966692,68.6249,44.6747)">
        <path d="M337.787,268.122C308.645,278.075 209.205,282.576 182.261,268.122C171.604,262.406 170.231,218.735 170.231,192.015C170.231,108.006 210.466,39.802 260.024,39.802C309.582,39.802 349.817,108.006 349.817,192.015C349.817,218.735 349.4,264.156 337.787,268.122Z" style="fill:url(#_Linear5);"/>
        <clipPath id="_clip6">
            <path d="M337.787,268.122C308.645,278.075 209.205,282.576 182.261,268.122C171.604,262.406 170.231,218.735 170.231,192.015C170.231,108.006 210.466,39.802 260.024,39.802C309.582,39.802 349.817,108.006 349.817,192.015C349.817,218.735 349.4,264.156 337.787,268.122Z"/>
        </clipPath>
        <g clip-path="url(#_clip6)">
            <g transform="matrix(1.49478,0,0,1.10536,-116.764,-46.2976)">
                <path d="M186.894,220.752C173.37,214.704 191.97,291.21 201.555,294.271C211.14,297.332 298.417,297.499 306.9,290.988C315.384,284.477 313.57,227.66 314.319,214.266C316.562,174.105 317.269,271.013 300.941,276.822C279.498,284.45 259.323,284.513 248.665,284.529C235.511,284.549 222.577,285.302 202.128,277.218C192.706,273.494 189.706,222.009 186.894,220.752Z" style="fill:rgb(222,85,164);"/>
            </g>
        </g>
    </g>
    <g transform="matrix(1.07514,0,0,1.07514,-18.7838,-2.0339)">
        <path d="M199.472,191.694C194.799,188.82 203.534,147.514 210.182,128.325C215.834,112.009 224.517,99.046 230.523,92.929C234.57,88.806 242.216,83.36 242.354,86.675C242.483,89.764 233.267,95.116 225.94,108.131C218.68,121.027 218.078,122.789 213.972,135.505C209.787,148.469 210.605,146.545 206.709,161.8C203.391,174.793 203.129,193.943 199.472,191.694Z" style="fill:rgb(255,227,243);"/>
    </g>
    <g transform="matrix(1.07514,0,0,1.07514,-17.2117,0.717459)">
        <path d="M210.83,49.691C203.149,55.681 195.064,63.947 185.744,79.037C176.545,93.929 169.409,111.803 163.968,126.364C158.436,141.17 151.07,184.807 161.933,187.176C174.094,189.829 175.654,156.375 184.806,129.816C190.817,112.371 196.176,97.388 203.516,85.189C209.817,74.716 213.661,70.842 220.525,61.551C221.719,59.935 232.937,48.663 228.038,43.856C224.661,40.543 218.32,43.85 210.83,49.691Z" style="fill:url(#_Linear7);"/>
    </g>
    <g transform="matrix(1.1478,0.0439098,-0.0410999,1.07435,-15.1632,-16.7942)">
        <path d="M221.252,365.371C224.489,357.122 238.321,356.307 240.107,363.462C241.759,370.081 240.774,377.771 241.727,387.201C242.56,395.45 247.54,406.399 245.078,412.729C243.117,417.771 230.161,421.57 226.686,414.967C224.527,410.863 221.4,400.498 220.198,390.754C218.851,379.838 219.635,369.49 221.252,365.371Z" style="fill:url(#_Linear8);"/>
    </g>
    <defs>
        <linearGradient id="_Linear2" x1="0" y1="0" x2="1" y2="0" gradientUnits="userSpaceOnUse" gradientTransform="matrix(94.2819,257.61,-272.92,88.993,212.053,30.1886)"><stop offset="0" style="stop-color:rgb(255,203,233);stop-opacity:1"/><stop offset="0.47" style="stop-color:rgb(255,166,217);stop-opacity:1"/><stop offset="1" style="stop-color:rgb(255,68,176);stop-opacity:1"/></linearGradient>
        <linearGradient id="_Linear4" x1="0" y1="0" x2="1" y2="0" gradientUnits="userSpaceOnUse" gradientTransform="matrix(236.432,4.49395,-4.49395,236.432,134.84,242.57)"><stop offset="0" style="stop-color:rgb(243,107,185);stop-opacity:1"/><stop offset="1" style="stop-color:rgb(203,36,132);stop-opacity:1"/></linearGradient>
        <linearGradient id="_Linear5" x1="0" y1="0" x2="1" y2="0" gradientUnits="userSpaceOnUse" gradientTransform="matrix(51.169,237.522,-329.176,36.9218,261.25,63.3911)"><stop offset="0" style="stop-color:rgb(255,205,234);stop-opacity:1"/><stop offset="0.47" style="stop-color:rgb(248,169,215);stop-opacity:1"/><stop offset="1" style="stop-color:rgb(230,73,164);stop-opacity:1"/></linearGradient>
        <linearGradient id="_Linear7" x1="0" y1="0" x2="1" y2="0" gradientUnits="userSpaceOnUse" gradientTransform="matrix(-78.8237,153.124,-153.124,-78.8237,229.082,33.2891)"><stop offset="0" style="stop-color:rgb(255,225,242);stop-opacity:1"/><stop offset="0.57" style="stop-color:rgb(255,219,239);stop-opacity:1"/><stop offset="0.8" style="stop-color:rgb(255,206,234);stop-opacity:1"/><stop offset="1" style="stop-color:rgb(255,194,229);stop-opacity:1"/></linearGradient>
        <linearGradient id="_Linear8" x1="0" y1="0" x2="1" y2="0" gradientUnits="userSpaceOnUse" gradientTransform="matrix(23.9757,-3.1373,2.93654,25.6149,218.722,394.142)"><stop offset="0" style="stop-color:rgb(255,243,221);stop-opacity:1"/><stop offset="1" style="stop-color:rgb(255,221,156);stop-opacity:1"/></linearGradient>
    </defs>
</svg>
