<?xml version="1.0" encoding="UTF-8" standalone="no"?>
<!DOCTYPE svg PUBLIC "-//W3C//DTD SVG 1.1//EN" "http://www.w3.org/Graphics/SVG/1.1/DTD/svg11.dtd">
<svg width="100%" height="100%" viewBox="0 0 500 500" version="1.1" xmlns="http://www.w3.org/2000/svg" xmlns:xlink="http://www.w3.org/1999/xlink" xml:space="preserve" xmlns:serif="http://www.serif.com/" style="fill-rule:evenodd;clip-rule:evenodd;stroke-linecap:round;stroke-linejoin:round;stroke-miterlimit:1.5;">
    <g id="Pear-shape" serif:id="Pear shape" transform="matrix(1.36006,0,0,1.36006,-160.114,0.671756)">
        <path d="M375.557,159.161C376.996,168.037 380.956,176.312 386.966,183C403.007,200.841 412.763,224.438 412.763,250.296C412.763,305.934 367.592,351.105 311.954,351.105C256.315,351.105 211.144,305.934 211.144,250.296C211.144,224.438 220.9,200.841 236.929,182.989C242.937,176.303 246.896,168.031 248.334,159.158C254.724,119.339 280.797,89.481 311.954,89.481C343.11,89.481 369.183,119.339 375.557,159.161Z" style="fill:rgb(78,149,25);"/>
        <clipPath id="_clip1">
            <path d="M375.557,159.161C376.996,168.037 380.956,176.312 386.966,183C403.007,200.841 412.763,224.438 412.763,250.296C412.763,305.934 367.592,351.105 311.954,351.105C256.315,351.105 211.144,305.934 211.144,250.296C211.144,224.438 220.9,200.841 236.929,182.989C242.937,176.303 246.896,168.031 248.334,159.158C254.724,119.339 280.797,89.481 311.954,89.481C343.11,89.481 369.183,119.339 375.557,159.161Z"/>
        </clipPath>
        <g clip-path="url(#_clip1)">
            <g id="Pear-highlight" serif:id="Pear highlight" transform="matrix(1,0,0,1,-11.521,-0.227718)">
                <path d="M377.806,159.289C378.882,168.597 382.724,177.37 388.835,184.474C403.746,201.765 410.709,223.716 410.709,249.358C410.709,304.997 367.592,351.105 311.954,351.105C256.315,351.105 211.144,305.934 211.144,250.296C211.144,224.405 220.925,200.78 236.992,182.92C242.934,176.32 246.88,168.169 248.369,159.414C255.123,119.175 283.492,87.836 314.727,87.836C346.174,87.836 372.629,113.156 377.806,159.289Z" style="fill:rgb(115,188,60);"/>
            </g>
            <g id="Pear-highlight1" serif:id="Pear highlight" transform="matrix(0.997143,0,0,1.0051,0.501071,-1.20802)">
                <path d="M282.867,346.839C241.39,334.343 211.144,295.823 211.144,250.296C211.144,225.487 220.125,202.759 235.01,185.189C242.109,176.771 246.907,166.657 248.937,155.834C256.191,117.687 281.671,89.481 311.954,89.481C318.329,89.481 324.492,90.731 330.317,93.061C326.208,91.953 321.125,91.754 316.778,91.754C286.496,91.754 261.851,119.578 254.597,157.725C252.567,168.549 247.769,178.662 240.67,187.08C225.785,204.65 216.804,227.378 216.804,252.187C216.804,295.617 244.327,332.669 282.867,346.839Z" style="fill:rgb(173,235,103);"/>
            </g>
            <g id="Pear-highlight2" serif:id="Pear highlight" transform="matrix(0.94225,0,0,0.94225,-2.27454,11.1042)">
                <path d="M341.11,164.236L341.116,164.27C343.731,179.973 350.724,194.62 361.293,206.526L361.319,206.556C371.669,218.189 377.949,233.515 377.949,250.296C377.949,286.719 348.377,316.291 311.954,316.291C275.53,316.291 245.958,286.719 245.958,250.296C245.958,233.504 252.246,218.169 262.593,206.519L262.599,206.512C273.164,194.609 280.156,179.965 282.77,164.266L282.772,164.251C284.866,151.646 289.672,140.457 296.81,132.592C301.062,127.906 306.062,124.295 311.954,124.295C317.843,124.295 322.842,127.905 327.092,132.589C334.224,140.451 339.025,151.635 341.11,164.236Z" style="fill:rgb(122,207,86);"/>
            </g>
        </g>
        <path d="M375.557,159.161C376.996,168.037 380.956,176.312 386.966,183C403.007,200.841 412.763,224.438 412.763,250.296C412.763,305.934 367.592,351.105 311.954,351.105C256.315,351.105 211.144,305.934 211.144,250.296C211.144,224.438 220.9,200.841 236.929,182.989C242.937,176.303 246.896,168.031 248.334,159.158C254.724,119.339 280.797,89.481 311.954,89.481C343.11,89.481 369.183,119.339 375.557,159.161Z" style="fill:none;stroke:black;stroke-width:2.62px;"/>
    </g>
    <g id="Stalk" transform="matrix(1.36006,0,0,1.36006,-68.8227,-84.2472)">
        <path d="M270.642,97.405C253.689,113.803 248.127,135.706 250.092,166.928L240.935,166.937C236.466,127.495 238.145,98.482 246.279,80.417C258.22,77.79 262.922,83.685 270.642,97.405Z" style="fill:rgb(144,63,41);"/>
        <clipPath id="_clip2">
            <path d="M270.642,97.405C253.689,113.803 248.127,135.706 250.092,166.928L240.935,166.937C236.466,127.495 238.145,98.482 246.279,80.417C258.22,77.79 262.922,83.685 270.642,97.405Z"/>
        </clipPath>
        <g clip-path="url(#_clip2)">
            <g id="Stalk1" serif:id="Stalk" transform="matrix(1,0,0,1,-0.124646,0.0961956)">
                <path d="M265.823,84.562C248.87,100.959 242.705,136.758 244.67,167.979L240.935,166.937C236.466,127.495 238.145,98.482 246.279,80.417C260.034,80.778 261.809,77.079 265.823,84.562Z" style="fill:rgb(213,143,123);"/>
            </g>
        </g>
        <path d="M270.642,97.405C253.689,113.803 248.127,135.706 250.092,166.928L240.935,166.937C236.466,127.495 238.145,98.482 246.279,80.417C258.22,77.79 262.922,83.685 270.642,97.405Z" style="fill:none;stroke:black;stroke-width:2.62px;"/>
    </g>
    <g id="lip" transform="matrix(-0.00644787,-1.45572,1.37979,-0.00611154,-45.4936,483.087)">
        <path d="M238.102,213.465C236.132,216.481 234.533,221.235 234.533,226.391C234.533,231.547 236.132,236.301 238.102,239.317C231.536,239.317 226.205,233.525 226.205,226.391C226.205,219.257 231.536,213.465 238.102,213.465Z"/>
    </g>
    <g id="leaf" transform="matrix(-1.46752,0.786499,0.786499,1.46752,355.645,-263.234)">
        <path d="M180.45,102.229C209.391,100.072 236.871,131.634 249.393,130.289C222.832,162.27 166.025,158.894 141.732,129.322C141.732,129.322 158.071,103.897 180.45,102.229Z" style="fill:rgb(137,246,130);"/>
        <clipPath id="_clip3">
            <path d="M180.45,102.229C209.391,100.072 236.871,131.634 249.393,130.289C222.832,162.27 166.025,158.894 141.732,129.322C141.732,129.322 158.071,103.897 180.45,102.229Z"/>
        </clipPath>
        <g clip-path="url(#_clip3)">
            <g id="leaf1" serif:id="leaf" transform="matrix(1,0,0,1,-1.6217,5.46028)">
                <path d="M181.707,101.423C210.535,100.184 238.059,130.194 250.97,125.666C224.41,157.647 165.15,158.751 140.857,129.179C140.857,129.179 159.286,102.386 181.707,101.423Z" style="fill:rgb(46,158,38);"/>
            </g>
        </g>
        <path d="M180.45,102.229C209.391,100.072 236.871,131.634 249.393,130.289C222.832,162.27 166.025,158.894 141.732,129.322C141.732,129.322 158.071,103.897 180.45,102.229Z" style="fill:none;stroke:black;stroke-width:2.14px;"/>
    </g>
    <g transform="matrix(1.36006,0,0,1.36006,-75.8534,-136.034)">
        <path d="M232.014,126.07C232.014,126.07 209.99,121.281 196.44,128.8C185.351,134.954 179.16,163.226 179.16,163.226C179.16,163.226 196.032,149.855 206.296,145.83C219.561,140.629 236.179,134.849 237.18,130.643C238.181,126.437 232.014,126.07 232.014,126.07Z" style="fill:rgb(36,118,17);"/>
    </g>
    <g transform="matrix(-1.46752,0.786499,0.786499,1.46752,583.316,-427.795)">
        <path d="M378.249,156.714C378.091,156.588 378.045,156.814 375.744,156.454C364.598,154.711 351.318,143.915 339.663,142.974C337.976,142.838 331.672,142.448 324.492,143.94C318.826,145.117 314.649,147.194 309.71,149.835C306.81,151.385 302.471,153.915 302.452,153.94C302.261,154.185 301.966,154.379 301.883,154.679C301.881,154.689 301.995,155.609 302,155.613C302.245,155.804 302.438,156.102 302.739,156.185C303.343,156.351 303.353,156.235 303.906,155.94C304.228,155.768 313.383,150.85 318.353,148.997C328.022,145.394 337.533,146.064 339.036,146.117C346.168,146.369 353.051,149.717 362.536,153.33C371.756,156.842 375.87,156.872 377.941,156.762C378.245,156.746 378.268,156.729 378.249,156.714Z"/>
    </g>
</svg>
