<?xml version="1.0" encoding="UTF-8" standalone="no"?>
<!DOCTYPE svg PUBLIC "-//W3C//DTD SVG 1.1//EN" "http://www.w3.org/Graphics/SVG/1.1/DTD/svg11.dtd">
<svg width="100%" height="100%" viewBox="0 0 500 500" version="1.1" xmlns="http://www.w3.org/2000/svg" xmlnsXlink="http://www.w3.org/1999/xlink" xmlSpace="preserve" xmlnsSerif="http://www.serif.com/" style="fill-rule:evenodd;clip-rule:evenodd;stroke-linejoin:round;stroke-miterlimit:2;">
    <g transform="matrix(1.58794,0,0,1.64324,-184.41,-73.7248)">
        <path d="M265.349,86.243C266.174,83.801 268.53,82.149 271.189,82.149C273.847,82.149 276.204,83.801 277.028,86.243C284.233,107.587 296.194,143.02 301.622,159.1C303.312,164.108 308.145,167.496 313.596,167.496C331.009,167.496 369.284,167.496 392.669,167.496C395.399,167.496 397.818,169.197 398.66,171.707C399.501,174.217 398.573,176.965 396.361,178.512C377.459,191.73 346.556,213.342 332.454,223.204C328.022,226.303 326.167,231.812 327.864,236.838C333.251,252.796 345.04,287.721 352.258,309.103C353.107,311.618 352.184,314.376 349.971,315.934C347.759,317.493 344.76,317.498 342.542,315.946C323.618,302.712 292.652,281.058 278.573,271.211C274.167,268.13 268.211,268.13 263.805,271.211C249.819,280.992 219.171,302.425 200.215,315.681C197.944,317.27 194.872,317.265 192.607,315.669C190.341,314.073 189.396,311.249 190.265,308.673C197.475,287.314 209.099,252.879 214.47,236.969C216.193,231.865 214.309,226.27 209.809,223.123C195.647,213.219 164.835,191.671 145.987,178.491C143.78,176.947 142.853,174.204 143.693,171.699C144.532,169.193 146.947,167.496 149.673,167.496C173.054,167.496 211.36,167.496 228.782,167.496C234.233,167.496 239.065,164.108 240.756,159.1C246.184,143.02 258.144,107.587 265.349,86.243Z" style="fill:rgb(255,199,0);"/>
    </g>
    <g transform="matrix(1.26184,0,0,0.976504,-70.3918,-8.24048)">
        <ellipse cx="221.392" cy="257.745" rx="23.405" ry="20.615" style="fill:rgb(255,222,137);"/>
    </g>
    <g transform="matrix(1.25812,0,0,1.34475,-50.2373,-142.846)">
        <ellipse cx="211.088" cy="316.821" rx="12.902" ry="8.264" style="fill:rgb(255,222,137);"/>
    </g>
</svg>
