<?xml version="1.0" encoding="UTF-8" standalone="no"?>
<!DOCTYPE svg PUBLIC "-//W3C//DTD SVG 1.1//EN" "http://www.w3.org/Graphics/SVG/1.1/DTD/svg11.dtd">
<svg width="100%" height="100%" viewBox="0 0 500 500" version="1.1" xmlns="http://www.w3.org/2000/svg" xmlns:xlink="http://www.w3.org/1999/xlink" xml:space="preserve" xmlns:serif="http://www.serif.com/" style="fill-rule:evenodd;clip-rule:evenodd;stroke-linejoin:round;stroke-miterlimit:2;">
    <g transform="matrix(1.06806,0,0,1.05307,26.5126,-21.6325)">
        <path d="M259.949,352.278L228.053,352.278L259.949,265.274L187.12,368.068L220.369,368.068L177.277,457.415L259.949,352.278Z" style="fill:rgb(255,230,0);"/>
    </g>
    <g transform="matrix(1,0,0,1,14.7496,-89.5418)">
        <path d="M76.537,360.191C74.541,360.234 28.034,358.65 32.508,308.325C34.957,280.781 71.693,270.663 91.628,271.54C75.888,236.961 77.921,211.112 97.489,192.363C128.551,162.6 174.942,184.849 191.591,198.731C192.809,151.231 249.355,136.801 278.577,148.381C325.672,167.043 312.761,220.782 312.761,220.782C312.761,220.782 354.367,183.922 386.876,220.782C409.664,246.621 397.849,277.28 386.876,288.999C427.387,290.383 439.089,306.513 436.738,328.26C433.211,360.866 386.876,360.191 386.876,360.191C386.876,360.191 112.016,356.808 76.537,360.191Z" style="fill:url(#_Linear1);"/>
        <path d="M76.548,360.691C67.631,360.682 27.305,355.854 30.784,308.171C32.759,281.111 66.126,269.572 87.145,268.666C78.614,249.204 68.4,216.781 93.225,190.828C121.937,160.812 164.299,174.489 187.017,188.775C188.93,178.167 195.049,161.481 214.939,149.523C234.156,137.969 261.588,134.222 282.258,142.604C314.681,155.754 321.776,184.802 321.656,205.748C340.558,195.318 367.441,190.029 390.033,212.945C412.555,235.791 410.163,264.003 400.23,282.73C412.892,284.501 429.934,289.214 438.39,302.699C439.357,304.24 445.585,313.461 443.306,329.887C439.477,357.494 410.269,365.459 389.632,366.093C387.009,366.174 386.297,366.083 352.744,365.288L210.631,361.858C202.668,361.682 147.942,360.477 111.076,360.243C85.126,360.079 78.967,360.536 76.548,360.691ZM76.489,359.693C91.509,358.066 137.667,356.471 258.685,355.021C263.974,354.958 321.014,354.415 361.336,354.312C384.721,354.252 387.124,354.311 389.629,354.149C399.606,353.501 415.355,350.451 423.887,341.368C426.288,338.812 430.718,333.432 430.222,322.034C429.821,312.799 425.902,299.784 395.511,296.929C389.748,296.387 386.521,296.475 385.406,296.249C381.552,295.467 380.257,292.349 380.043,291.836C378.535,288.203 380.396,285.385 380.702,284.922C381.325,283.979 383.907,281.672 386.788,276.194C391.586,267.073 395.057,252.913 389.328,238.845C385.43,229.275 376.238,218.325 364.908,214.089C348.703,208.031 332.163,216.477 323.837,221.825C319.453,224.642 317.353,226.622 316.604,227.079C316.119,227.375 313.144,229.191 309.506,227.403C308.996,227.152 305.868,225.614 305.428,221.584C305.237,219.842 305.819,218.667 306.365,214.727C307.741,204.809 309.175,180.194 291.571,164.192C290.421,163.146 284.435,157.705 274.925,154.174C249.335,144.675 199.032,156.529 197.092,198.367C197.058,199.105 197.11,199.107 196.962,199.83C196.875,200.253 196.339,202.868 193.415,203.899C193.071,204.02 191.05,204.733 188.874,203.489C187.917,202.943 185.149,200.161 178.468,196.068C158.368,183.753 120.691,170.937 95.928,199.919C86.547,210.896 77.123,230.781 93.924,269.537C94.023,269.765 94.765,271.023 94.441,272.27C94.287,272.865 93.557,274.445 91.514,274.442C91.511,274.442 80.679,273.507 66.743,277.566C51.351,282.05 35.995,291.67 34.232,308.48C29.179,356.677 72.822,359.51 76.489,359.693Z" style="fill:rgb(89,165,243);"/>
    </g>
    <g transform="matrix(1.04175,0,0,1.06177,-27.3333,-67.703)">
        <path d="M259.949,352.278L228.053,352.278L259.949,265.274L187.12,368.068L220.369,368.068L177.277,457.415L259.949,352.278Z" style="fill:rgb(255,230,0);"/>
    </g>
    <defs>
        <linearGradient id="_Linear1" x1="0" y1="0" x2="1" y2="0" gradientUnits="userSpaceOnUse" gradientTransform="matrix(-396.248,134.856,-134.856,-396.248,438.479,221.538)"><stop offset="0" style="stop-color:rgb(136,186,255);stop-opacity:1"/><stop offset="1" style="stop-color:rgb(205,223,249);stop-opacity:1"/></linearGradient>
    </defs>
</svg>
