<?xml version="1.0" encoding="UTF-8" standalone="no"?>
<!DOCTYPE svg PUBLIC "-//W3C//DTD SVG 1.1//EN" "http://www.w3.org/Graphics/SVG/1.1/DTD/svg11.dtd">
<svg width="100%" height="100%" viewBox="0 0 500 500" version="1.1" xmlns="http://www.w3.org/2000/svg" xmlns:xlink="http://www.w3.org/1999/xlink" xml:space="preserve" xmlns:serif="http://www.serif.com/" style="fill-rule:evenodd;clip-rule:evenodd;stroke-linejoin:round;stroke-miterlimit:2;">
    <g transform="matrix(1.06806,0,0,1.05307,26.5126,-21.6325)">
        <path d="M259.949,352.278L228.053,352.278L259.949,265.274L187.12,368.068L220.369,368.068L177.277,457.415L259.949,352.278Z" style="fill:rgb(255,230,0);"/>
        <clipPath id="_clip1">
            <path d="M259.949,352.278L228.053,352.278L259.949,265.274L187.12,368.068L220.369,368.068L177.277,457.415L259.949,352.278Z"/>
        </clipPath>
        <g clip-path="url(#_clip1)">
            <g transform="matrix(0.978127,0,0,1.00122,21.1745,-7.48153)">
                <path d="M259.949,352.278L228.053,352.278L259.949,246.017L194.845,367.872L224.282,367.872L164.38,464.331L259.949,352.278Z" style="fill:rgb(255,208,35);"/>
            </g>
        </g>
    </g>
    <g transform="matrix(1,0,0,1,14.7496,-89.5418)">
        <path d="M76.537,360.191C74.541,360.234 28.034,358.65 32.508,308.325C34.957,280.781 65.599,277.628 85.534,278.505C69.794,243.926 77.921,211.112 97.489,192.363C128.551,162.6 174.942,184.849 191.591,198.731C192.809,151.231 244.521,133.295 276.28,146.363C323.127,165.64 314.509,219.296 314.509,219.296C314.509,219.296 358.495,183.794 392.471,221.368C415.578,246.922 397.849,277.28 386.876,288.999C427.387,290.383 440.786,306.471 438.434,328.217C434.908,360.824 386.876,360.191 386.876,360.191C386.876,360.191 112.016,356.808 76.537,360.191Z" style="fill:rgb(84,140,217);"/>
        <clipPath id="_clip2">
            <path d="M76.537,360.191C74.541,360.234 28.034,358.65 32.508,308.325C34.957,280.781 65.599,277.628 85.534,278.505C69.794,243.926 77.921,211.112 97.489,192.363C128.551,162.6 174.942,184.849 191.591,198.731C192.809,151.231 244.521,133.295 276.28,146.363C323.127,165.64 314.509,219.296 314.509,219.296C314.509,219.296 358.495,183.794 392.471,221.368C415.578,246.922 397.849,277.28 386.876,288.999C427.387,290.383 440.786,306.471 438.434,328.217C434.908,360.824 386.876,360.191 386.876,360.191C386.876,360.191 112.016,356.808 76.537,360.191Z"/>
        </clipPath>
        <g clip-path="url(#_clip2)">
            <g transform="matrix(1,0,0,1,-7.45081,5.24519)">
                <path d="M76.537,360.191C74.541,360.234 28.034,358.65 32.508,308.325C34.957,280.781 71.693,270.663 91.628,271.54C75.888,236.961 81.013,209.565 100.581,190.816C131.643,161.053 182.756,186.392 199.405,200.273C200.622,152.774 249.355,136.801 278.577,148.381C325.672,167.043 316.332,218.296 316.332,218.296C316.332,218.296 357.229,187.308 388.596,220.645C407.765,241.018 403.319,266.794 389.074,286.438C426.279,288.24 437.621,305.591 434.447,325.582C430.038,353.349 380.377,354.566 380.377,354.566C380.377,354.566 112.016,356.808 76.537,360.191Z" style="fill:url(#_Linear3);"/>
            </g>
        </g>
    </g>
    <g transform="matrix(1.04175,0,0,1.06177,-27.3333,-67.703)">
        <path d="M259.949,352.278L228.053,352.278L259.949,265.274L187.12,368.068L220.369,368.068L177.277,457.415L259.949,352.278Z" style="fill:rgb(255,230,0);"/>
        <clipPath id="_clip4">
            <path d="M259.949,352.278L228.053,352.278L259.949,265.274L187.12,368.068L220.369,368.068L177.277,457.415L259.949,352.278Z"/>
        </clipPath>
        <g clip-path="url(#_clip4)">
            <g transform="matrix(1.00283,0,0,0.993016,17.013,-3.95837)">
                <path d="M259.949,352.278L228.053,352.278L259.949,246.017L194.845,367.872L224.282,367.872L164.38,464.331L259.949,352.278Z" style="fill:rgb(255,208,35);"/>
            </g>
        </g>
    </g>
    <defs>
        <linearGradient id="_Linear3" x1="0" y1="0" x2="1" y2="0" gradientUnits="userSpaceOnUse" gradientTransform="matrix(-396.248,134.856,-134.856,-396.248,438.479,221.538)"><stop offset="0" style="stop-color:rgb(136,186,255);stop-opacity:1"/><stop offset="1" style="stop-color:rgb(205,223,249);stop-opacity:1"/></linearGradient>
    </defs>
</svg>
